<svg xmlns="http://www.w3.org/2000/svg" xmlns:xlink="http://www.w3.org/1999/xlink" width="500" zoomAndPan="magnify" viewBox="0 0 375 374.999991" height="500" preserveAspectRatio="xMidYMid meet" version="1.0"><defs><g/></defs><g fill="#fff7e9" fill-opacity="1"><g transform="translate(18.359805, 193.652532)"><g><path d="M 25.125 -10.53125 L 32.734375 -10.53125 C 32.035156 -8.40625 30.941406 -6.515625 29.453125 -4.859375 C 27.960938 -3.203125 26.195312 -1.898438 24.15625 -0.953125 C 22.125 -0.015625 19.921875 0.453125 17.546875 0.453125 C 15.359375 0.453125 13.300781 0.046875 11.375 -0.765625 C 9.445312 -1.585938 7.742188 -2.734375 6.265625 -4.203125 C 4.796875 -5.679688 3.648438 -7.382812 2.828125 -9.3125 C 2.003906 -11.25 1.59375 -13.3125 1.59375 -15.5 C 1.59375 -17.6875 2.003906 -19.742188 2.828125 -21.671875 C 3.648438 -23.609375 4.796875 -25.3125 6.265625 -26.78125 C 7.742188 -28.257812 9.445312 -29.40625 11.375 -30.21875 C 13.300781 -31.039062 15.359375 -31.453125 17.546875 -31.453125 C 19.921875 -31.453125 22.117188 -30.984375 24.140625 -30.046875 C 26.160156 -29.109375 27.914062 -27.820312 29.40625 -26.1875 C 30.894531 -24.5625 31.988281 -22.6875 32.6875 -20.5625 L 25.078125 -20.5625 C 24.441406 -21.957031 23.421875 -23.054688 22.015625 -23.859375 C 20.617188 -24.671875 19.128906 -25.078125 17.546875 -25.078125 C 15.878906 -25.078125 14.359375 -24.644531 12.984375 -23.78125 C 11.617188 -22.914062 10.535156 -21.757812 9.734375 -20.3125 C 8.929688 -18.863281 8.53125 -17.257812 8.53125 -15.5 C 8.53125 -13.738281 8.929688 -12.132812 9.734375 -10.6875 C 10.535156 -9.25 11.617188 -8.09375 12.984375 -7.21875 C 14.359375 -6.351562 15.878906 -5.921875 17.546875 -5.921875 C 19.160156 -5.921875 20.664062 -6.347656 22.0625 -7.203125 C 23.46875 -8.054688 24.488281 -9.164062 25.125 -10.53125 Z M 25.125 -10.53125 "/></g></g></g><g fill="#fff7e9" fill-opacity="1"><g transform="translate(52.236492, 193.652532)"><g><path d="M 19.78125 -31 L 27.078125 -31 L 27.078125 0 L 19.78125 0 L 19.78125 -12.453125 L 9.578125 -12.453125 L 9.578125 0 L 2.734375 0 L 2.734375 -31 L 9.578125 -31 L 9.578125 -18.640625 L 19.78125 -18.640625 Z M 19.78125 -31 "/></g></g></g><g fill="#fff7e9" fill-opacity="1"><g transform="translate(82.05528, 193.652532)"><g><path d="M 20.84375 -31 L 27.671875 -31 L 27.671875 -12.078125 C 27.671875 -7.941406 26.546875 -4.816406 24.296875 -2.703125 C 22.046875 -0.597656 18.898438 0.453125 14.859375 0.453125 C 10.816406 0.453125 7.671875 -0.597656 5.421875 -2.703125 C 3.171875 -4.816406 2.046875 -7.941406 2.046875 -12.078125 L 2.046875 -31 L 8.890625 -31 L 8.890625 -13.078125 C 8.890625 -10.953125 9.304688 -9.304688 10.140625 -8.140625 C 10.972656 -6.972656 12.546875 -6.390625 14.859375 -6.390625 C 17.203125 -6.390625 18.785156 -6.972656 19.609375 -8.140625 C 20.429688 -9.304688 20.84375 -10.953125 20.84375 -13.078125 Z M 20.84375 -31 "/></g></g></g><g fill="#fff7e9" fill-opacity="1"><g transform="translate(111.782876, 193.652532)"><g><path d="M 9.578125 -11.078125 L 9.578125 0 L 2.734375 0 L 2.734375 -31 L 14.359375 -31 C 16.035156 -31 17.59375 -30.582031 19.03125 -29.75 C 20.476562 -28.914062 21.640625 -27.753906 22.515625 -26.265625 C 23.398438 -24.773438 23.84375 -23.039062 23.84375 -21.0625 C 23.84375 -19.332031 23.523438 -17.796875 22.890625 -16.453125 C 22.253906 -15.117188 21.398438 -14.023438 20.328125 -13.171875 C 19.265625 -12.328125 18.082031 -11.734375 16.78125 -11.390625 L 25.671875 0 L 17 0 L 9.625 -11.078125 Z M 13.21875 -25.625 L 9.578125 -25.625 L 9.578125 -16.453125 L 13.21875 -16.453125 C 14.226562 -16.453125 15.164062 -16.847656 16.03125 -17.640625 C 16.894531 -18.429688 17.328125 -19.570312 17.328125 -21.0625 C 17.328125 -22.488281 16.894531 -23.601562 16.03125 -24.40625 C 15.164062 -25.21875 14.226562 -25.625 13.21875 -25.625 Z M 13.21875 -25.625 "/></g></g></g><g fill="#fff7e9" fill-opacity="1"><g transform="translate(136.905426, 193.652532)"><g><path d="M 25.125 -10.53125 L 32.734375 -10.53125 C 32.035156 -8.40625 30.941406 -6.515625 29.453125 -4.859375 C 27.960938 -3.203125 26.195312 -1.898438 24.15625 -0.953125 C 22.125 -0.015625 19.921875 0.453125 17.546875 0.453125 C 15.359375 0.453125 13.300781 0.046875 11.375 -0.765625 C 9.445312 -1.585938 7.742188 -2.734375 6.265625 -4.203125 C 4.796875 -5.679688 3.648438 -7.382812 2.828125 -9.3125 C 2.003906 -11.25 1.59375 -13.3125 1.59375 -15.5 C 1.59375 -17.6875 2.003906 -19.742188 2.828125 -21.671875 C 3.648438 -23.609375 4.796875 -25.3125 6.265625 -26.78125 C 7.742188 -28.257812 9.445312 -29.40625 11.375 -30.21875 C 13.300781 -31.039062 15.359375 -31.453125 17.546875 -31.453125 C 19.921875 -31.453125 22.117188 -30.984375 24.140625 -30.046875 C 26.160156 -29.109375 27.914062 -27.820312 29.40625 -26.1875 C 30.894531 -24.5625 31.988281 -22.6875 32.6875 -20.5625 L 25.078125 -20.5625 C 24.441406 -21.957031 23.421875 -23.054688 22.015625 -23.859375 C 20.617188 -24.671875 19.128906 -25.078125 17.546875 -25.078125 C 15.878906 -25.078125 14.359375 -24.644531 12.984375 -23.78125 C 11.617188 -22.914062 10.535156 -21.757812 9.734375 -20.3125 C 8.929688 -18.863281 8.53125 -17.257812 8.53125 -15.5 C 8.53125 -13.738281 8.929688 -12.132812 9.734375 -10.6875 C 10.535156 -9.25 11.617188 -8.09375 12.984375 -7.21875 C 14.359375 -6.351562 15.878906 -5.921875 17.546875 -5.921875 C 19.160156 -5.921875 20.664062 -6.347656 22.0625 -7.203125 C 23.46875 -8.054688 24.488281 -9.164062 25.125 -10.53125 Z M 25.125 -10.53125 "/></g></g></g><g fill="#fff7e9" fill-opacity="1"><g transform="translate(170.782113, 193.652532)"><g><path d="M 19.78125 -31 L 27.078125 -31 L 27.078125 0 L 19.78125 0 L 19.78125 -12.453125 L 9.578125 -12.453125 L 9.578125 0 L 2.734375 0 L 2.734375 -31 L 9.578125 -31 L 9.578125 -18.640625 L 19.78125 -18.640625 Z M 19.78125 -31 "/></g></g></g><g fill="#fff7e9" fill-opacity="1"><g transform="translate(200.600901, 193.652532)"><g/></g></g><g fill="#fff7e9" fill-opacity="1"><g transform="translate(211.999524, 193.652532)"><g><path d="M 9.578125 -13.859375 L 9.578125 0 L 2.734375 0 L 2.734375 -31 L 9.578125 -31 L 9.578125 -17.140625 L 19.375 -31 L 28.125 -31 L 16.234375 -15.5 L 28.59375 0 L 19.375 0 Z M 9.578125 -13.859375 "/></g></g></g><g fill="#fff7e9" fill-opacity="1"><g transform="translate(240.131311, 193.652532)"><g><path d="M 26.671875 -15.546875 C 26.671875 -17.160156 26.242188 -18.65625 25.390625 -20.03125 C 24.546875 -21.414062 23.429688 -22.535156 22.046875 -23.390625 C 20.660156 -24.242188 19.160156 -24.671875 17.546875 -24.671875 C 15.972656 -24.671875 14.484375 -24.242188 13.078125 -23.390625 C 11.679688 -22.535156 10.554688 -21.414062 9.703125 -20.03125 C 8.859375 -18.65625 8.4375 -17.160156 8.4375 -15.546875 C 8.4375 -13.960938 8.859375 -12.472656 9.703125 -11.078125 C 10.554688 -9.679688 11.679688 -8.550781 13.078125 -7.6875 C 14.484375 -6.820312 15.972656 -6.390625 17.546875 -6.390625 C 19.160156 -6.390625 20.660156 -6.820312 22.046875 -7.6875 C 23.429688 -8.550781 24.546875 -9.679688 25.390625 -11.078125 C 26.242188 -12.472656 26.671875 -13.960938 26.671875 -15.546875 Z M 33.515625 -15.5 C 33.515625 -13.375 33.085938 -11.34375 32.234375 -9.40625 C 31.378906 -7.476562 30.210938 -5.773438 28.734375 -4.296875 C 27.265625 -2.828125 25.570312 -1.664062 23.65625 -0.8125 C 21.75 0.03125 19.710938 0.453125 17.546875 0.453125 C 15.421875 0.453125 13.394531 0.03125 11.46875 -0.8125 C 9.539062 -1.664062 7.835938 -2.828125 6.359375 -4.296875 C 4.890625 -5.773438 3.726562 -7.476562 2.875 -9.40625 C 2.019531 -11.34375 1.59375 -13.375 1.59375 -15.5 C 1.59375 -17.65625 2.019531 -19.691406 2.875 -21.609375 C 3.726562 -23.523438 4.890625 -25.21875 6.359375 -26.6875 C 7.835938 -28.164062 9.539062 -29.328125 11.46875 -30.171875 C 13.394531 -31.023438 15.421875 -31.453125 17.546875 -31.453125 C 19.710938 -31.453125 21.75 -31.023438 23.65625 -30.171875 C 25.570312 -29.328125 27.265625 -28.164062 28.734375 -26.6875 C 30.210938 -25.21875 31.378906 -23.523438 32.234375 -21.609375 C 33.085938 -19.691406 33.515625 -17.65625 33.515625 -15.5 Z M 33.515625 -15.5 "/></g></g></g><g fill="#fff7e9" fill-opacity="1"><g transform="translate(275.239055, 193.652532)"><g><path d="M 27.078125 0 L 20.25 0 L 9.578125 -19.328125 L 9.578125 0 L 2.734375 0 L 2.734375 -31 L 9.578125 -31 L 20.25 -11.671875 L 20.25 -31 L 27.078125 -31 Z M 27.078125 0 "/></g></g></g><g fill="#fff7e9" fill-opacity="1"><g transform="translate(305.057855, 193.652532)"><g><path d="M 20.703125 -6.203125 L 20.703125 0 L 2.734375 0 L 2.734375 -31 L 20.703125 -31 L 20.703125 -24.796875 L 9.578125 -24.796875 L 9.578125 -18.640625 L 20.25 -18.640625 L 20.25 -12.453125 L 9.578125 -12.453125 L 9.578125 -6.203125 Z M 20.703125 -6.203125 "/></g></g></g><g fill="#fff7e9" fill-opacity="1"><g transform="translate(328.493416, 193.652532)"><g><path d="M 9.578125 -13.859375 L 9.578125 0 L 2.734375 0 L 2.734375 -31 L 9.578125 -31 L 9.578125 -17.140625 L 19.375 -31 L 28.125 -31 L 16.234375 -15.5 L 28.59375 0 L 19.375 0 Z M 9.578125 -13.859375 "/></g></g></g><g fill="#fff7e9" fill-opacity="1"><g transform="translate(41.581953, 219.675951)"><g><path d="M 7.765625 -2.84375 C 7.765625 -2.425781 7.671875 -2.023438 7.484375 -1.640625 C 7.296875 -1.265625 7.039062 -0.957031 6.71875 -0.71875 C 6.101562 -0.238281 5.273438 0 4.234375 0 L 1.125 0 L 1.125 -10.171875 L 3.875 -10.171875 C 5.363281 -10.171875 6.332031 -9.710938 6.78125 -8.796875 C 6.9375 -8.472656 7.015625 -8.140625 7.015625 -7.796875 C 7.015625 -7.460938 6.992188 -7.195312 6.953125 -7 C 6.890625 -6.800781 6.804688 -6.613281 6.703125 -6.4375 C 6.472656 -6.050781 6.179688 -5.773438 5.828125 -5.609375 C 6.421875 -5.453125 6.894531 -5.132812 7.25 -4.65625 C 7.59375 -4.164062 7.765625 -3.5625 7.765625 -2.84375 Z M 5.96875 -7.640625 C 5.96875 -8.660156 5.269531 -9.171875 3.875 -9.171875 L 2.171875 -9.171875 L 2.171875 -6 L 4.171875 -6 C 4.710938 -6 5.148438 -6.132812 5.484375 -6.40625 C 5.804688 -6.675781 5.96875 -7.085938 5.96875 -7.640625 Z M 6.71875 -3.03125 C 6.71875 -3.332031 6.664062 -3.597656 6.5625 -3.828125 C 6.4375 -4.054688 6.285156 -4.257812 6.109375 -4.4375 C 5.710938 -4.78125 5.242188 -4.953125 4.703125 -4.953125 L 2.171875 -4.953125 L 2.171875 -1 L 4.53125 -1 C 5.175781 -1 5.703125 -1.1875 6.109375 -1.5625 C 6.515625 -1.9375 6.71875 -2.425781 6.71875 -3.03125 Z M 6.71875 -3.03125 "/></g></g></g><g fill="#fff7e9" fill-opacity="1"><g transform="translate(52.646503, 219.675951)"><g><path d="M 4.78125 0.609375 L 0.15625 -10.171875 L 1.28125 -10.171875 L 4.78125 -1.96875 L 8.25 -10.171875 L 9.390625 -10.171875 Z M 4.78125 0.609375 "/></g></g></g><g fill="#fff7e9" fill-opacity="1"><g transform="translate(65.178341, 219.675951)"><g><path d="M 10.515625 0 L 8.921875 -7.25 L 5.875 0.59375 L 2.796875 -7.25 L 1.234375 0 L 0.15625 0 L 2.53125 -10.859375 L 5.875 -2.140625 L 9.203125 -10.859375 L 11.578125 0 Z M 10.515625 0 "/></g></g></g><g fill="#fff7e9" fill-opacity="1"><g transform="translate(79.896136, 219.675951)"><g><path d="M 3.046875 -1.765625 L 1.375 2.109375 L 0.75 2.109375 L 1.609375 -1.765625 Z M 3.046875 -1.765625 "/></g></g></g><g fill="#fff7e9" fill-opacity="1"><g transform="translate(86.364183, 219.675951)"><g/></g></g><g fill="#fff7e9" fill-opacity="1"><g transform="translate(93.401176, 219.675951)"><g><path d="M 11.140625 -5.078125 C 11.140625 -4.359375 11.003906 -3.679688 10.734375 -3.046875 C 10.453125 -2.410156 10.078125 -1.859375 9.609375 -1.390625 C 9.296875 -1.078125 8.953125 -0.8125 8.578125 -0.59375 C 8.992188 -0.6875 9.390625 -0.773438 9.765625 -0.859375 L 11.28125 -0.859375 L 11.28125 0 L 7.15625 0 C 6.75 0.101562 6.328125 0.15625 5.890625 0.15625 C 5.171875 0.15625 4.5 0.015625 3.875 -0.265625 C 3.238281 -0.535156 2.6875 -0.910156 2.21875 -1.390625 C 1.738281 -1.859375 1.363281 -2.410156 1.09375 -3.046875 C 0.8125 -3.679688 0.671875 -4.359375 0.671875 -5.078125 C 0.671875 -5.796875 0.8125 -6.472656 1.09375 -7.109375 C 1.363281 -7.742188 1.738281 -8.300781 2.21875 -8.78125 C 2.6875 -9.25 3.238281 -9.625 3.875 -9.90625 C 4.5 -10.175781 5.171875 -10.3125 5.890625 -10.3125 C 6.609375 -10.3125 7.289062 -10.175781 7.9375 -9.90625 C 8.570312 -9.625 9.128906 -9.25 9.609375 -8.78125 C 10.078125 -8.300781 10.453125 -7.742188 10.734375 -7.109375 C 11.003906 -6.472656 11.140625 -5.796875 11.140625 -5.078125 Z M 10.09375 -5.078125 C 10.09375 -6.234375 9.679688 -7.21875 8.859375 -8.03125 C 8.046875 -8.851562 7.054688 -9.265625 5.890625 -9.265625 C 4.742188 -9.265625 3.765625 -8.851562 2.953125 -8.03125 C 2.128906 -7.21875 1.71875 -6.234375 1.71875 -5.078125 C 1.71875 -3.929688 2.128906 -2.945312 2.953125 -2.125 C 3.765625 -1.300781 4.742188 -0.890625 5.890625 -0.890625 C 7.054688 -0.890625 8.046875 -1.300781 8.859375 -2.125 C 9.679688 -2.945312 10.09375 -3.929688 10.09375 -5.078125 Z M 10.09375 -5.078125 "/></g></g></g><g fill="#fff7e9" fill-opacity="1"><g transform="translate(108.133944, 219.675951)"><g><path d="M 5.671875 -1.125 C 5.179688 -0.28125 4.445312 0.140625 3.46875 0.140625 C 2.726562 0.140625 2.148438 -0.101562 1.734375 -0.59375 C 1.328125 -1.082031 1.125 -1.707031 1.125 -2.46875 L 1.125 -6.59375 L 2.171875 -6.59375 L 2.171875 -2.46875 C 2.171875 -2.039062 2.269531 -1.675781 2.46875 -1.375 C 2.65625 -1.0625 2.972656 -0.90625 3.421875 -0.90625 C 4.242188 -0.90625 4.828125 -1.164062 5.171875 -1.6875 C 5.503906 -2.195312 5.671875 -2.910156 5.671875 -3.828125 L 5.671875 -6.59375 L 6.71875 -6.59375 L 6.71875 0 L 5.671875 0 Z M 5.671875 -1.125 "/></g></g></g><g fill="#fff7e9" fill-opacity="1"><g transform="translate(118.74932, 219.675951)"><g><path d="M 7.5625 -3.4375 L 7.5625 -2.890625 L 1.765625 -2.890625 C 1.867188 -2.316406 2.144531 -1.851562 2.59375 -1.5 C 3.050781 -1.125 3.554688 -0.9375 4.109375 -0.9375 C 4.492188 -0.9375 4.859375 -1.03125 5.203125 -1.21875 C 5.546875 -1.382812 5.832031 -1.625 6.0625 -1.9375 L 7.265625 -1.9375 C 6.984375 -1.300781 6.5625 -0.804688 6 -0.453125 C 5.4375 -0.078125 4.863281 0.109375 4.28125 0.109375 C 3.6875 0.109375 3.1875 0.015625 2.78125 -0.171875 C 2.363281 -0.347656 2 -0.585938 1.6875 -0.890625 C 1.007812 -1.554688 0.671875 -2.367188 0.671875 -3.328125 C 0.671875 -4.273438 1.007812 -5.085938 1.6875 -5.765625 C 2.351562 -6.429688 3.160156 -6.765625 4.109375 -6.765625 C 5.035156 -6.765625 5.84375 -6.441406 6.53125 -5.796875 C 7.21875 -5.140625 7.5625 -4.351562 7.5625 -3.4375 Z M 6.453125 -3.78125 C 6.328125 -4.34375 6.046875 -4.804688 5.609375 -5.171875 C 5.171875 -5.535156 4.671875 -5.71875 4.109375 -5.71875 C 3.253906 -5.71875 2.582031 -5.332031 2.09375 -4.5625 C 1.945312 -4.320312 1.84375 -4.0625 1.78125 -3.78125 Z M 6.453125 -3.78125 "/></g></g></g><g fill="#fff7e9" fill-opacity="1"><g transform="translate(129.903701, 219.675951)"><g><path d="M 7.5625 -3.4375 L 7.5625 -2.890625 L 1.765625 -2.890625 C 1.867188 -2.316406 2.144531 -1.851562 2.59375 -1.5 C 3.050781 -1.125 3.554688 -0.9375 4.109375 -0.9375 C 4.492188 -0.9375 4.859375 -1.03125 5.203125 -1.21875 C 5.546875 -1.382812 5.832031 -1.625 6.0625 -1.9375 L 7.265625 -1.9375 C 6.984375 -1.300781 6.5625 -0.804688 6 -0.453125 C 5.4375 -0.078125 4.863281 0.109375 4.28125 0.109375 C 3.6875 0.109375 3.1875 0.015625 2.78125 -0.171875 C 2.363281 -0.347656 2 -0.585938 1.6875 -0.890625 C 1.007812 -1.554688 0.671875 -2.367188 0.671875 -3.328125 C 0.671875 -4.273438 1.007812 -5.085938 1.6875 -5.765625 C 2.351562 -6.429688 3.160156 -6.765625 4.109375 -6.765625 C 5.035156 -6.765625 5.84375 -6.441406 6.53125 -5.796875 C 7.21875 -5.140625 7.5625 -4.351562 7.5625 -3.4375 Z M 6.453125 -3.78125 C 6.328125 -4.34375 6.046875 -4.804688 5.609375 -5.171875 C 5.171875 -5.535156 4.671875 -5.71875 4.109375 -5.71875 C 3.253906 -5.71875 2.582031 -5.332031 2.09375 -4.5625 C 1.945312 -4.320312 1.84375 -4.0625 1.78125 -3.78125 Z M 6.453125 -3.78125 "/></g></g></g><g fill="#fff7e9" fill-opacity="1"><g transform="translate(141.058082, 219.675951)"><g><path d="M 5.671875 0 L 5.671875 -4.109375 C 5.671875 -4.546875 5.578125 -4.914062 5.390625 -5.21875 C 5.191406 -5.519531 4.867188 -5.671875 4.421875 -5.671875 C 3.960938 -5.671875 3.597656 -5.585938 3.328125 -5.421875 C 3.046875 -5.253906 2.820312 -5.035156 2.65625 -4.765625 C 2.332031 -4.265625 2.171875 -3.59375 2.171875 -2.75 L 2.171875 0 L 1.125 0 L 1.125 -6.59375 L 2.171875 -6.59375 L 2.171875 -5.453125 C 2.390625 -5.816406 2.671875 -6.117188 3.015625 -6.359375 C 3.367188 -6.597656 3.78125 -6.71875 4.25 -6.71875 C 4.71875 -6.71875 5.097656 -6.65625 5.390625 -6.53125 C 5.679688 -6.382812 5.925781 -6.195312 6.125 -5.96875 C 6.519531 -5.5 6.71875 -4.878906 6.71875 -4.109375 L 6.71875 0 Z M 5.671875 0 "/></g></g></g><g fill="#fff7e9" fill-opacity="1"><g transform="translate(151.673462, 219.675951)"><g/></g></g><g fill="#fff7e9" fill-opacity="1"><g transform="translate(158.710451, 219.675951)"><g><path d="M 6.515625 -3.328125 C 6.515625 -3.984375 6.28125 -4.546875 5.8125 -5.015625 C 5.34375 -5.484375 4.773438 -5.71875 4.109375 -5.71875 C 3.453125 -5.71875 2.890625 -5.484375 2.421875 -5.015625 C 1.953125 -4.546875 1.71875 -3.984375 1.71875 -3.328125 C 1.71875 -2.671875 1.953125 -2.109375 2.421875 -1.640625 C 2.890625 -1.171875 3.453125 -0.9375 4.109375 -0.9375 C 4.773438 -0.9375 5.34375 -1.171875 5.8125 -1.640625 C 6.28125 -2.109375 6.515625 -2.671875 6.515625 -3.328125 Z M 7.5625 -3.328125 C 7.5625 -2.367188 7.226562 -1.554688 6.5625 -0.890625 C 5.863281 -0.222656 5.046875 0.109375 4.109375 0.109375 C 3.171875 0.109375 2.363281 -0.222656 1.6875 -0.890625 C 1.007812 -1.554688 0.671875 -2.367188 0.671875 -3.328125 C 0.671875 -4.273438 1.007812 -5.085938 1.6875 -5.765625 C 2.351562 -6.429688 3.160156 -6.765625 4.109375 -6.765625 C 5.054688 -6.765625 5.875 -6.429688 6.5625 -5.765625 C 7.226562 -5.085938 7.5625 -4.273438 7.5625 -3.328125 Z M 7.5625 -3.328125 "/></g></g></g><g fill="#fff7e9" fill-opacity="1"><g transform="translate(169.939693, 219.675951)"><g><path d="M 4.65625 -10.25 L 3.75 -10.25 C 3.40625 -10.25 3.175781 -10.171875 3.0625 -10.015625 C 2.957031 -9.859375 2.90625 -9.664062 2.90625 -9.4375 L 2.90625 -6.59375 L 4.65625 -6.59375 L 4.65625 -5.609375 L 2.90625 -5.609375 L 2.90625 0 L 1.859375 0 L 1.859375 -5.609375 L 0.53125 -5.609375 L 0.53125 -6.59375 L 1.859375 -6.59375 L 1.859375 -9.125 C 1.859375 -9.800781 2.015625 -10.320312 2.328125 -10.6875 C 2.640625 -11.039062 3.164062 -11.21875 3.90625 -11.21875 L 4.65625 -11.21875 Z M 4.65625 -10.25 "/></g></g></g><g fill="#fff7e9" fill-opacity="1"><g transform="translate(178.039724, 219.675951)"><g/></g></g><g fill="#fff7e9" fill-opacity="1"><g transform="translate(185.076712, 219.675951)"><g><path d="M 0.296875 -5.609375 L 0.296875 -6.59375 L 1.953125 -6.59375 L 1.953125 -9.140625 L 3 -9.140625 L 3 -6.59375 L 4.625 -6.59375 L 4.625 -5.609375 L 3 -5.609375 L 3 0 L 1.953125 0 L 1.953125 -5.609375 Z M 0.296875 -5.609375 "/></g></g></g><g fill="#fff7e9" fill-opacity="1"><g transform="translate(192.997072, 219.675951)"><g><path d="M 2.171875 0 L 1.125 0 L 1.125 -11.21875 L 2.171875 -11.21875 L 2.171875 -5.453125 C 2.390625 -5.816406 2.671875 -6.117188 3.015625 -6.359375 C 3.367188 -6.597656 3.78125 -6.71875 4.25 -6.71875 C 4.71875 -6.71875 5.097656 -6.65625 5.390625 -6.53125 C 5.679688 -6.382812 5.925781 -6.195312 6.125 -5.96875 C 6.519531 -5.5 6.71875 -4.878906 6.71875 -4.109375 L 6.71875 0 L 5.671875 0 L 5.671875 -4.109375 C 5.671875 -4.546875 5.578125 -4.914062 5.390625 -5.21875 C 5.191406 -5.519531 4.867188 -5.671875 4.421875 -5.671875 C 3.960938 -5.671875 3.597656 -5.601562 3.328125 -5.46875 C 3.046875 -5.3125 2.820312 -5.101562 2.65625 -4.84375 C 2.332031 -4.363281 2.171875 -3.664062 2.171875 -2.75 Z M 2.171875 0 "/></g></g></g><g fill="#fff7e9" fill-opacity="1"><g transform="translate(203.612453, 219.675951)"><g><path d="M 7.5625 -3.4375 L 7.5625 -2.890625 L 1.765625 -2.890625 C 1.867188 -2.316406 2.144531 -1.851562 2.59375 -1.5 C 3.050781 -1.125 3.554688 -0.9375 4.109375 -0.9375 C 4.492188 -0.9375 4.859375 -1.03125 5.203125 -1.21875 C 5.546875 -1.382812 5.832031 -1.625 6.0625 -1.9375 L 7.265625 -1.9375 C 6.984375 -1.300781 6.5625 -0.804688 6 -0.453125 C 5.4375 -0.078125 4.863281 0.109375 4.28125 0.109375 C 3.6875 0.109375 3.1875 0.015625 2.78125 -0.171875 C 2.363281 -0.347656 2 -0.585938 1.6875 -0.890625 C 1.007812 -1.554688 0.671875 -2.367188 0.671875 -3.328125 C 0.671875 -4.273438 1.007812 -5.085938 1.6875 -5.765625 C 2.351562 -6.429688 3.160156 -6.765625 4.109375 -6.765625 C 5.035156 -6.765625 5.84375 -6.441406 6.53125 -5.796875 C 7.21875 -5.140625 7.5625 -4.351562 7.5625 -3.4375 Z M 6.453125 -3.78125 C 6.328125 -4.34375 6.046875 -4.804688 5.609375 -5.171875 C 5.171875 -5.535156 4.671875 -5.71875 4.109375 -5.71875 C 3.253906 -5.71875 2.582031 -5.332031 2.09375 -4.5625 C 1.945312 -4.320312 1.84375 -4.0625 1.78125 -3.78125 Z M 6.453125 -3.78125 "/></g></g></g><g fill="#fff7e9" fill-opacity="1"><g transform="translate(214.766843, 219.675951)"><g/></g></g><g fill="#fff7e9" fill-opacity="1"><g transform="translate(221.803841, 219.675951)"><g><path d="M 9.203125 0.828125 L 5.875 -8.03125 L 2.53125 0.828125 L 0.15625 -10.171875 L 1.234375 -10.171875 L 2.796875 -2.78125 L 5.875 -10.78125 L 8.921875 -2.78125 L 10.515625 -10.171875 L 11.578125 -10.171875 Z M 9.203125 0.828125 "/></g></g></g><g fill="#fff7e9" fill-opacity="1"><g transform="translate(236.521636, 219.675951)"><g><path d="M 6.515625 -3.328125 C 6.515625 -3.984375 6.28125 -4.546875 5.8125 -5.015625 C 5.34375 -5.484375 4.773438 -5.71875 4.109375 -5.71875 C 3.453125 -5.71875 2.890625 -5.484375 2.421875 -5.015625 C 1.953125 -4.546875 1.71875 -3.984375 1.71875 -3.328125 C 1.71875 -2.671875 1.953125 -2.109375 2.421875 -1.640625 C 2.890625 -1.171875 3.453125 -0.9375 4.109375 -0.9375 C 4.773438 -0.9375 5.34375 -1.171875 5.8125 -1.640625 C 6.28125 -2.109375 6.515625 -2.671875 6.515625 -3.328125 Z M 7.5625 -3.328125 C 7.5625 -2.367188 7.226562 -1.554688 6.5625 -0.890625 C 5.863281 -0.222656 5.046875 0.109375 4.109375 0.109375 C 3.171875 0.109375 2.363281 -0.222656 1.6875 -0.890625 C 1.007812 -1.554688 0.671875 -2.367188 0.671875 -3.328125 C 0.671875 -4.273438 1.007812 -5.085938 1.6875 -5.765625 C 2.351562 -6.429688 3.160156 -6.765625 4.109375 -6.765625 C 5.054688 -6.765625 5.875 -6.429688 6.5625 -5.765625 C 7.226562 -5.085938 7.5625 -4.273438 7.5625 -3.328125 Z M 7.5625 -3.328125 "/></g></g></g><g fill="#fff7e9" fill-opacity="1"><g transform="translate(247.75087, 219.675951)"><g><path d="M 4.5 -5.21875 C 4.257812 -5.4375 4.003906 -5.546875 3.734375 -5.546875 C 3.460938 -5.546875 3.226562 -5.472656 3.03125 -5.328125 C 2.832031 -5.171875 2.671875 -4.984375 2.546875 -4.765625 C 2.296875 -4.316406 2.171875 -3.828125 2.171875 -3.296875 L 2.171875 0 L 1.125 0 L 1.125 -6.59375 L 2.171875 -6.59375 L 2.171875 -5.21875 L 2.21875 -5.5 C 2.5625 -6.3125 3.101562 -6.71875 3.84375 -6.71875 C 4.070312 -6.71875 4.289062 -6.675781 4.5 -6.59375 Z M 4.5 -5.21875 "/></g></g></g><g fill="#fff7e9" fill-opacity="1"><g transform="translate(255.401729, 219.675951)"><g><path d="M 2.171875 0 L 1.125 0 L 1.125 -11.21875 L 2.171875 -11.21875 Z M 2.171875 0 "/></g></g></g><g fill="#fff7e9" fill-opacity="1"><g transform="translate(261.690111, 219.675951)"><g><path d="M 6.359375 -3.296875 C 6.359375 -3.929688 6.140625 -4.488281 5.703125 -4.96875 C 5.253906 -5.445312 4.703125 -5.6875 4.046875 -5.6875 C 3.378906 -5.6875 2.828125 -5.445312 2.390625 -4.96875 C 1.941406 -4.488281 1.71875 -3.929688 1.71875 -3.296875 C 1.71875 -2.648438 1.941406 -2.085938 2.390625 -1.609375 C 2.828125 -1.128906 3.378906 -0.890625 4.046875 -0.890625 C 4.703125 -0.890625 5.253906 -1.128906 5.703125 -1.609375 C 6.140625 -2.085938 6.359375 -2.648438 6.359375 -3.296875 Z M 7.40625 0 L 6.359375 0 L 6.359375 -1.125 C 6.296875 -1.039062 6.238281 -0.960938 6.1875 -0.890625 C 5.550781 -0.191406 4.78125 0.15625 3.875 0.15625 C 2.96875 0.15625 2.207031 -0.191406 1.59375 -0.890625 C 0.976562 -1.578125 0.671875 -2.378906 0.671875 -3.296875 C 0.671875 -4.210938 0.976562 -5.007812 1.59375 -5.6875 C 2.207031 -6.382812 2.96875 -6.734375 3.875 -6.734375 C 4.78125 -6.734375 5.550781 -6.382812 6.1875 -5.6875 C 6.238281 -5.613281 6.296875 -5.539062 6.359375 -5.46875 L 6.359375 -11.21875 L 7.40625 -11.21875 Z M 7.40625 0 "/></g></g></g><g fill="#fff7e9" fill-opacity="1"><g transform="translate(273.218791, 219.675951)"><g/></g></g><g fill="#fff7e9" fill-opacity="1"><g transform="translate(280.255789, 219.675951)"><g><path d="M 2.171875 -5.046875 L 4.53125 -5.046875 C 5.125 -5.046875 5.609375 -5.242188 5.984375 -5.640625 C 6.378906 -6.035156 6.578125 -6.535156 6.578125 -7.140625 C 6.578125 -7.734375 6.390625 -8.222656 6.015625 -8.609375 C 5.648438 -8.984375 5.15625 -9.171875 4.53125 -9.171875 L 2.171875 -9.171875 Z M 7.625 -7.109375 C 7.625 -6.222656 7.304688 -5.484375 6.671875 -4.890625 C 6.054688 -4.316406 5.296875 -4.03125 4.390625 -4.03125 L 2.171875 -4.03125 L 2.171875 0 L 1.125 0 L 1.125 -10.171875 L 4.390625 -10.171875 C 5.285156 -10.171875 6.046875 -9.890625 6.671875 -9.328125 C 7.304688 -8.742188 7.625 -8.003906 7.625 -7.109375 Z M 7.625 -7.109375 "/></g></g></g><g fill="#fff7e9" fill-opacity="1"><g transform="translate(291.170607, 219.675951)"><g><path d="M 6.359375 -3.296875 C 6.359375 -3.929688 6.140625 -4.488281 5.703125 -4.96875 C 5.253906 -5.445312 4.703125 -5.6875 4.046875 -5.6875 C 3.378906 -5.6875 2.828125 -5.445312 2.390625 -4.96875 C 1.941406 -4.488281 1.71875 -3.929688 1.71875 -3.296875 C 1.71875 -2.648438 1.941406 -2.085938 2.390625 -1.609375 C 2.828125 -1.128906 3.378906 -0.890625 4.046875 -0.890625 C 4.703125 -0.890625 5.253906 -1.128906 5.703125 -1.609375 C 6.140625 -2.085938 6.359375 -2.648438 6.359375 -3.296875 Z M 7.40625 0 L 6.359375 0 L 6.359375 -1.125 C 6.296875 -1.039062 6.238281 -0.960938 6.1875 -0.890625 C 5.550781 -0.191406 4.78125 0.15625 3.875 0.15625 C 2.96875 0.15625 2.207031 -0.191406 1.59375 -0.890625 C 0.976562 -1.578125 0.671875 -2.378906 0.671875 -3.296875 C 0.671875 -4.210938 0.976562 -5.007812 1.59375 -5.6875 C 2.207031 -6.382812 2.96875 -6.734375 3.875 -6.734375 C 4.78125 -6.734375 5.550781 -6.382812 6.1875 -5.6875 C 6.238281 -5.613281 6.296875 -5.539062 6.359375 -5.46875 L 6.359375 -6.59375 L 7.40625 -6.59375 Z M 7.40625 0 "/></g></g></g><g fill="#fff7e9" fill-opacity="1"><g transform="translate(302.699305, 219.675951)"><g><path d="M 4.5 -5.21875 C 4.257812 -5.4375 4.003906 -5.546875 3.734375 -5.546875 C 3.460938 -5.546875 3.226562 -5.472656 3.03125 -5.328125 C 2.832031 -5.171875 2.671875 -4.984375 2.546875 -4.765625 C 2.296875 -4.316406 2.171875 -3.828125 2.171875 -3.296875 L 2.171875 0 L 1.125 0 L 1.125 -6.59375 L 2.171875 -6.59375 L 2.171875 -5.21875 L 2.21875 -5.5 C 2.5625 -6.3125 3.101562 -6.71875 3.84375 -6.71875 C 4.070312 -6.71875 4.289062 -6.675781 4.5 -6.59375 Z M 4.5 -5.21875 "/></g></g></g><g fill="#fff7e9" fill-opacity="1"><g transform="translate(310.350165, 219.675951)"><g><path d="M 2.1875 -8.859375 C 2.3125 -8.734375 2.375 -8.578125 2.375 -8.390625 C 2.375 -8.203125 2.3125 -8.046875 2.1875 -7.921875 C 2.050781 -7.785156 1.894531 -7.71875 1.71875 -7.71875 C 1.53125 -7.71875 1.375 -7.785156 1.25 -7.921875 C 1.113281 -8.046875 1.046875 -8.203125 1.046875 -8.390625 C 1.046875 -8.578125 1.113281 -8.734375 1.25 -8.859375 C 1.375 -8.992188 1.53125 -9.0625 1.71875 -9.0625 C 1.894531 -9.0625 2.050781 -8.992188 2.1875 -8.859375 Z M 2.25 0 L 1.203125 0 L 1.203125 -6.59375 L 2.25 -6.59375 Z M 2.25 0 "/></g></g></g><g fill="#fff7e9" fill-opacity="1"><g transform="translate(316.773301, 219.675951)"><g><path d="M 2.078125 -0.9375 C 2.335938 -0.757812 2.675781 -0.671875 3.09375 -0.671875 C 4.050781 -0.671875 4.53125 -1.03125 4.53125 -1.75 C 4.53125 -2.164062 4.1875 -2.484375 3.5 -2.703125 C 3.207031 -2.804688 2.898438 -2.898438 2.578125 -2.984375 C 2.234375 -3.054688 1.914062 -3.160156 1.625 -3.296875 C 1.289062 -3.453125 1.039062 -3.648438 0.875 -3.890625 C 0.695312 -4.128906 0.609375 -4.414062 0.609375 -4.75 C 0.609375 -5.40625 0.835938 -5.898438 1.296875 -6.234375 C 1.753906 -6.566406 2.304688 -6.734375 2.953125 -6.734375 C 3.585938 -6.734375 4.113281 -6.601562 4.53125 -6.34375 C 4.957031 -6.082031 5.242188 -5.617188 5.390625 -4.953125 L 4.265625 -4.953125 C 4.148438 -5.328125 3.972656 -5.570312 3.734375 -5.6875 C 3.515625 -5.8125 3.242188 -5.875 2.921875 -5.875 C 2.585938 -5.875 2.304688 -5.800781 2.078125 -5.65625 C 1.835938 -5.507812 1.71875 -5.289062 1.71875 -5 C 1.71875 -4.695312 1.816406 -4.476562 2.015625 -4.34375 C 2.210938 -4.207031 2.453125 -4.09375 2.734375 -4 C 3.023438 -3.90625 3.34375 -3.820312 3.6875 -3.75 C 4.007812 -3.675781 4.320312 -3.566406 4.625 -3.421875 C 5.300781 -3.109375 5.640625 -2.597656 5.640625 -1.890625 C 5.640625 -1.179688 5.382812 -0.65625 4.875 -0.3125 C 4.613281 -0.144531 4.332031 -0.015625 4.03125 0.078125 C 3.726562 0.148438 3.394531 0.1875 3.03125 0.1875 C 1.507812 0.1875 0.632812 -0.488281 0.40625 -1.84375 L 1.515625 -1.84375 C 1.617188 -1.414062 1.804688 -1.113281 2.078125 -0.9375 Z M 2.078125 -0.9375 "/></g></g></g><g fill="#fff7e9" fill-opacity="1"><g transform="translate(325.78664, 219.675951)"><g><path d="M 2.171875 0 L 1.125 0 L 1.125 -11.21875 L 2.171875 -11.21875 L 2.171875 -5.453125 C 2.390625 -5.816406 2.671875 -6.117188 3.015625 -6.359375 C 3.367188 -6.597656 3.78125 -6.71875 4.25 -6.71875 C 4.71875 -6.71875 5.097656 -6.65625 5.390625 -6.53125 C 5.679688 -6.382812 5.925781 -6.195312 6.125 -5.96875 C 6.519531 -5.5 6.71875 -4.878906 6.71875 -4.109375 L 6.71875 0 L 5.671875 0 L 5.671875 -4.109375 C 5.671875 -4.546875 5.578125 -4.914062 5.390625 -5.21875 C 5.191406 -5.519531 4.867188 -5.671875 4.421875 -5.671875 C 3.960938 -5.671875 3.597656 -5.601562 3.328125 -5.46875 C 3.046875 -5.3125 2.820312 -5.101562 2.65625 -4.84375 C 2.332031 -4.363281 2.171875 -3.664062 2.171875 -2.75 Z M 2.171875 0 "/></g></g></g></svg>