<svg xmlns="http://www.w3.org/2000/svg" xmlns:xlink="http://www.w3.org/1999/xlink" width="500" zoomAndPan="magnify" viewBox="0 0 375 374.999991" height="500" preserveAspectRatio="xMidYMid meet" version="1.0"><rect x="-37.5" width="450" fill="#ffffff" y="-37.499999" height="449.999989" fill-opacity="1"/><rect x="-37.5" width="450" fill="#ffffff" y="-37.499999" height="449.999989" fill-opacity="1"/><path fill="#fff7e9" d="M 287.953125 175.089844 L 373.410156 291.042969 C 375 293.203125 373.457031 296.257812 370.777344 296.257812 L 321.417969 296.257812 C 320.375 296.257812 319.390625 295.757812 318.773438 294.914062 L 256.476562 209.347656 C 255.285156 207.710938 252.894531 207.539062 251.484375 208.996094 L 200.746094 261.144531 L 200.746094 261.148438 C 195.15625 267.15625 189.351562 272.542969 183.34375 277.304688 C 177.335938 282.074219 170.757812 286.164062 163.613281 289.582031 C 156.464844 293 148.640625 295.59375 140.152344 297.347656 C 131.65625 299.105469 122.128906 299.992188 111.5625 299.992188 C 95.605469 299.992188 80.796875 297.089844 67.125 291.289062 C 53.453125 285.492188 41.644531 277.570312 31.699219 267.515625 C 21.753906 257.472656 13.984375 245.613281 8.390625 231.9375 C 2.800781 218.261719 0.00390625 203.660156 0.00390625 188.121094 L 0.00390625 187.5 C 0.00390625 171.960938 2.800781 157.410156 8.390625 143.835938 C 13.984375 130.273438 21.753906 118.359375 31.699219 108.101562 C 41.644531 97.847656 53.554688 89.769531 67.4375 83.867188 C 81.3125 77.960938 96.648438 75.007812 113.425781 75.007812 C 123.574219 75.007812 132.847656 75.839844 141.238281 77.496094 C 149.628906 79.152344 157.242188 81.433594 164.078125 84.332031 C 168.796875 86.335938 173.25 88.648438 177.472656 91.246094 C 178.804688 92.066406 180.523438 91.867188 181.59375 90.730469 L 190.226562 81.601562 C 190.847656 80.949219 191.703125 80.578125 192.609375 80.578125 L 244.742188 80.578125 C 247.628906 80.578125 249.101562 84.035156 247.105469 86.117188 L 174.925781 161.234375 C 174.289062 161.890625 173.410156 162.257812 172.496094 162.238281 L 122.527344 161.148438 C 119.6875 161.089844 118.269531 157.6875 120.21875 155.628906 L 143.710938 130.789062 C 145.195312 129.222656 144.769531 126.640625 142.832031 125.679688 L 142.792969 125.660156 C 133.984375 121.3125 124.09375 119.136719 113.113281 119.136719 C 103.996094 119.136719 95.558594 120.898438 87.789062 124.417969 C 80.023438 127.941406 73.339844 132.808594 67.746094 139.023438 C 62.152344 145.242188 57.804688 152.4375 54.695312 160.621094 C 51.585938 168.804688 50.03125 177.554688 50.03125 186.878906 L 50.03125 187.5 C 50.03125 196.824219 51.585938 205.632812 54.695312 213.910156 C 57.804688 222.199219 62.101562 229.453125 67.589844 235.664062 C 73.078125 241.878906 79.710938 246.804688 87.476562 250.429688 C 95.246094 254.054688 103.792969 255.863281 113.113281 255.863281 C 125.546875 255.863281 136.058594 253.589844 144.65625 249.03125 C 153.25 244.472656 161.796875 238.257812 170.296875 230.382812 L 312.691406 81.589844 C 313.308594 80.941406 314.164062 80.578125 315.058594 80.578125 L 367.210938 80.578125 C 370.097656 80.578125 371.570312 84.035156 369.574219 86.117188 L 288.222656 170.878906 C 287.121094 172.03125 287.007812 173.804688 287.953125 175.089844 " fill-opacity="1" fill-rule="nonzero"/></svg>